<svg width="746" height="722" viewBox="0 0 746 722" fill="none" xmlns="http://www.w3.org/2000/svg">
<g clip-path="url(#clip0)">
<path d="M680.602 720.623V648.283C680.602 648.283 708.794 699.569 680.602 720.623Z" fill="#F1F1F1"/>
<path d="M682.344 720.611L629.054 671.69C629.054 671.69 685.899 685.605 682.344 720.611Z" fill="#F1F1F1"/>
<path d="M494.388 319.189L211.602 484.467C210.613 485.044 209.434 485.205 208.326 484.914C207.218 484.624 206.271 483.905 205.691 482.917L23.842 171.779C23.265 170.789 23.1042 169.611 23.3948 168.503C23.6854 167.394 24.4038 166.447 25.3922 165.868L308.177 0.589636C309.167 0.012682 310.345 -0.148122 311.454 0.1425C312.562 0.433123 313.509 1.15144 314.089 2.13987L495.938 313.278C496.515 314.268 496.676 315.446 496.385 316.554C496.094 317.662 495.376 318.61 494.388 319.189Z" fill="#FAF8F8"/>
<path d="M494.388 319.189L211.602 484.467C210.613 485.044 209.434 485.205 208.326 484.914C207.218 484.624 206.271 483.905 205.691 482.917L23.842 171.779C23.265 170.789 23.1042 169.611 23.3948 168.503C23.6854 167.394 24.4038 166.447 25.3922 165.868L308.177 0.589636C309.167 0.012682 310.345 -0.148122 311.454 0.1425C312.562 0.433123 313.509 1.15144 314.089 2.13987L495.938 313.278C496.515 314.268 496.676 315.446 496.385 316.554C496.094 317.662 495.376 318.61 494.388 319.189ZM26.2644 167.36C25.6713 167.707 25.2403 168.276 25.0659 168.941C24.8915 169.606 24.988 170.313 25.3343 170.906L207.184 482.045C207.531 482.638 208.1 483.069 208.765 483.243C209.429 483.418 210.136 483.321 210.73 482.975L493.515 317.697C494.109 317.35 494.54 316.781 494.714 316.116C494.888 315.451 494.792 314.744 494.446 314.15L312.596 3.012C312.249 2.41891 311.68 1.9879 311.015 1.81352C310.35 1.63914 309.643 1.73564 309.05 2.08185L26.2644 167.36Z" fill="#23292E"/>
<path d="M208.04 198.345L137.903 239.337C136.913 239.914 135.735 240.075 134.627 239.784C133.519 239.494 132.571 238.775 131.992 237.787L90.9996 167.65C90.4226 166.66 90.2618 165.482 90.5524 164.374C90.843 163.266 91.5614 162.318 92.5498 161.739L162.686 120.747C163.676 120.17 164.854 120.009 165.963 120.299C167.071 120.59 168.018 121.308 168.598 122.297L209.59 192.434C210.167 193.423 210.328 194.602 210.037 195.71C209.747 196.818 209.028 197.765 208.04 198.345V198.345ZM93.422 163.231C92.8289 163.579 92.3979 164.147 92.2235 164.812C92.0491 165.477 92.1456 166.184 92.4918 166.778L133.484 236.915C133.832 237.508 134.4 237.939 135.065 238.113C135.73 238.288 136.437 238.191 137.031 237.845L207.168 196.852C207.761 196.505 208.192 195.936 208.366 195.271C208.54 194.607 208.444 193.9 208.098 193.306L167.105 123.169C166.758 122.576 166.189 122.145 165.524 121.971C164.859 121.796 164.153 121.893 163.559 122.239L93.422 163.231Z" fill="#F2F2F2"/>
<path d="M192.909 218.7L122.772 259.692C121.882 260.211 120.821 260.356 119.824 260.094C118.827 259.833 117.974 259.186 117.452 258.297L76.46 188.16C75.9408 187.269 75.796 186.209 76.0576 185.212C76.3192 184.214 76.9657 183.361 77.8552 182.84L147.992 141.848C148.883 141.328 149.943 141.184 150.94 141.445C151.938 141.707 152.791 142.353 153.312 143.243L194.304 213.38C194.824 214.27 194.968 215.331 194.707 216.328C194.445 217.325 193.799 218.178 192.909 218.7Z" fill="#8F4444"/>
<path d="M362.196 165.804L142.833 294.014C141.942 294.535 140.881 294.68 139.884 294.418C138.886 294.157 138.033 293.51 137.513 292.619C136.992 291.729 136.847 290.668 137.108 289.67C137.37 288.672 138.017 287.82 138.908 287.299L358.271 159.089C358.712 158.831 359.2 158.663 359.706 158.593C360.212 158.524 360.726 158.555 361.22 158.685C361.714 158.814 362.178 159.04 362.585 159.348C362.992 159.657 363.334 160.043 363.592 160.484C363.849 160.925 364.018 161.412 364.087 161.918C364.156 162.424 364.125 162.939 363.996 163.433C363.866 163.927 363.641 164.391 363.332 164.797C363.023 165.204 362.637 165.546 362.196 165.804V165.804Z" fill="#CCCCCC"/>
<path d="M322.739 219.897L156.351 317.144C155.91 317.402 155.423 317.571 154.917 317.64C154.411 317.709 153.896 317.678 153.402 317.549C152.405 317.287 151.552 316.64 151.031 315.749C150.511 314.859 150.365 313.798 150.627 312.8C150.889 311.803 151.536 310.95 152.427 310.429L318.815 213.181C319.256 212.924 319.743 212.755 320.249 212.686C320.755 212.617 321.27 212.648 321.764 212.777C322.258 212.907 322.721 213.132 323.128 213.441C323.535 213.75 323.877 214.136 324.135 214.577C324.392 215.017 324.561 215.505 324.63 216.011C324.699 216.517 324.668 217.031 324.539 217.525C324.409 218.02 324.184 218.483 323.875 218.89C323.566 219.297 323.18 219.639 322.739 219.897V219.897Z" fill="#CCCCCC"/>
<path d="M311.736 81.1806L214.738 137.872C213.848 138.393 212.787 138.538 211.789 138.276C210.792 138.015 209.939 137.368 209.418 136.477C208.898 135.587 208.753 134.526 209.014 133.528C209.276 132.53 209.923 131.678 210.814 131.157L307.811 74.4654C308.702 73.945 309.762 73.7996 310.76 74.0612C311.254 74.1908 311.718 74.4164 312.125 74.7251C312.531 75.0338 312.873 75.4197 313.131 75.8606C313.389 76.3016 313.557 76.7889 313.627 77.2949C313.696 77.8009 313.665 78.3156 313.535 78.8096C313.406 79.3036 313.18 79.7672 312.871 80.1741C312.563 80.5809 312.177 80.9229 311.736 81.1806Z" fill="#CCCCCC"/>
<path d="M301.047 118.459L228.257 161.002C227.816 161.26 227.329 161.429 226.823 161.498C226.317 161.567 225.802 161.536 225.308 161.407C224.814 161.277 224.351 161.052 223.944 160.743C223.537 160.434 223.195 160.048 222.937 159.607C222.679 159.166 222.511 158.679 222.442 158.173C222.372 157.667 222.403 157.152 222.533 156.658C222.663 156.164 222.888 155.701 223.197 155.294C223.506 154.887 223.891 154.545 224.332 154.287L297.123 111.744C298.013 111.223 299.074 111.078 300.072 111.34C301.069 111.601 301.922 112.249 302.443 113.139C302.963 114.03 303.109 115.09 302.847 116.088C302.585 117.086 301.938 117.939 301.047 118.459Z" fill="#CCCCCC"/>
<path d="M389.234 212.064L169.87 340.275C168.98 340.795 167.919 340.94 166.921 340.679C165.923 340.417 165.071 339.77 164.55 338.879C164.03 337.989 163.884 336.928 164.146 335.93C164.408 334.933 165.055 334.08 165.945 333.559L385.309 205.349C386.2 204.829 387.26 204.683 388.258 204.945C389.256 205.207 390.109 205.854 390.629 206.744C391.15 207.635 391.295 208.696 391.033 209.693C390.772 210.691 390.124 211.544 389.234 212.064V212.064Z" fill="#CCCCCC"/>
<path d="M349.777 266.157L183.389 363.405C182.948 363.663 182.461 363.831 181.955 363.9C181.449 363.97 180.934 363.939 180.44 363.809C179.946 363.68 179.482 363.454 179.075 363.145C178.669 362.836 178.327 362.451 178.069 362.01C177.811 361.569 177.643 361.081 177.573 360.575C177.504 360.069 177.535 359.555 177.665 359.061C177.794 358.567 178.02 358.103 178.329 357.696C178.637 357.289 179.023 356.947 179.464 356.69L345.852 259.442C346.293 259.184 346.78 259.016 347.286 258.946C347.792 258.877 348.307 258.908 348.801 259.038C349.295 259.167 349.759 259.393 350.166 259.701C350.572 260.01 350.914 260.396 351.172 260.837C351.43 261.278 351.598 261.765 351.668 262.271C351.737 262.777 351.706 263.292 351.576 263.786C351.447 264.28 351.221 264.744 350.913 265.15C350.604 265.557 350.218 265.899 349.777 266.157V266.157Z" fill="#CCCCCC"/>
<path d="M416.271 258.325L196.908 386.535C196.467 386.793 195.979 386.961 195.473 387.03C194.967 387.1 194.453 387.069 193.959 386.939C193.465 386.81 193.001 386.584 192.594 386.275C192.187 385.967 191.845 385.581 191.588 385.14C191.33 384.699 191.162 384.212 191.092 383.706C191.023 383.2 191.054 382.685 191.183 382.191C191.313 381.697 191.539 381.233 191.847 380.826C192.156 380.42 192.542 380.077 192.983 379.82L412.347 251.609C412.788 251.352 413.275 251.183 413.781 251.114C414.287 251.045 414.802 251.076 415.296 251.205C415.79 251.335 416.253 251.56 416.66 251.869C417.067 252.178 417.409 252.564 417.667 253.005C417.924 253.446 418.093 253.933 418.162 254.439C418.231 254.945 418.2 255.46 418.071 255.954C417.941 256.448 417.716 256.911 417.407 257.318C417.098 257.725 416.712 258.067 416.271 258.325V258.325Z" fill="#CCCCCC"/>
<path d="M429.79 281.455L210.426 409.665C209.986 409.923 209.498 410.091 208.992 410.161C208.486 410.23 207.971 410.199 207.477 410.069C206.983 409.94 206.52 409.714 206.113 409.406C205.706 409.097 205.364 408.711 205.106 408.27C204.849 407.829 204.68 407.342 204.611 406.836C204.542 406.33 204.573 405.815 204.702 405.321C204.832 404.827 205.057 404.363 205.366 403.957C205.675 403.55 206.061 403.208 206.502 402.95L425.865 274.74C426.306 274.482 426.794 274.314 427.3 274.244C427.806 274.175 428.32 274.206 428.814 274.335C429.308 274.465 429.772 274.691 430.179 274.999C430.586 275.308 430.928 275.694 431.185 276.135C431.443 276.576 431.611 277.063 431.681 277.569C431.75 278.075 431.719 278.59 431.59 279.084C431.46 279.578 431.234 280.042 430.926 280.448C430.617 280.855 430.231 281.197 429.79 281.455V281.455Z" fill="#CCCCCC"/>
<path d="M358.852 371.498C361.9 367.909 364.643 364.072 367.054 360.027C369.215 356.379 371.336 352.477 371.813 348.198C372.056 346.376 371.867 344.522 371.259 342.787C370.651 341.051 369.642 339.484 368.314 338.213C367.031 337.03 365.404 336.286 363.67 336.089C361.936 335.892 360.184 336.251 358.668 337.116C357.134 337.997 355.866 339.276 355 340.818C354.133 342.36 353.699 344.108 353.745 345.876C353.869 347.823 354.432 349.717 355.391 351.416C356.349 353.115 357.679 354.576 359.281 355.69C365.765 360.387 375.891 360.142 382.802 356.567C390.586 352.541 394.607 342.006 388.492 334.794C387.22 333.294 385.103 334.971 385.422 336.589C385.826 338.774 387.049 340.723 388.842 342.037C390.635 343.351 392.861 343.931 395.067 343.658C397.273 343.385 399.291 342.281 400.71 340.57C402.129 338.859 402.841 336.671 402.701 334.453L399.952 336.06C403.322 337.553 407.026 338.132 410.692 337.739C414.357 337.346 417.854 335.994 420.831 333.82C422.304 332.75 423.619 331.479 424.738 330.044C426.084 328.288 428.344 327.154 430.175 325.889L443.365 316.775C445.305 315.435 443.461 312.24 441.504 313.592L429.558 321.846C427.568 323.221 425.564 324.58 423.585 325.973C422.171 326.969 421.301 328.576 420.014 329.759C417.577 331.951 414.567 333.405 411.336 333.951C408.104 334.498 404.784 334.115 401.762 332.846C401.48 332.695 401.165 332.618 400.845 332.624C400.525 332.63 400.213 332.718 399.937 332.879C399.661 333.04 399.431 333.27 399.269 333.545C399.107 333.821 399.019 334.134 399.013 334.453C399.158 335.777 398.775 337.104 397.946 338.146C397.118 339.189 395.911 339.862 394.589 340.018C393.266 340.175 391.936 339.803 390.886 338.983C389.837 338.163 389.155 336.962 388.987 335.641L385.917 337.435C389.862 342.087 387.235 349.222 382.69 352.344C377.607 355.835 370.097 356.441 364.367 354.271C362.962 353.787 361.671 353.019 360.576 352.014C359.481 351.009 358.605 349.789 358.002 348.431C357.444 347.203 357.284 345.832 357.547 344.509C357.809 343.186 358.48 341.979 359.464 341.058C360.317 340.215 361.465 339.736 362.664 339.724C363.863 339.711 365.02 340.165 365.891 340.989C366.84 341.958 367.536 343.144 367.918 344.445C368.3 345.746 368.356 347.121 368.082 348.448C367.491 352.143 365.449 355.55 363.549 358.705C361.379 362.301 358.926 365.718 356.212 368.923C354.691 370.723 357.315 373.317 358.852 371.498Z" fill="#8F4444"/>
<path d="M391.593 459.179C391.911 459.506 392.202 459.858 392.465 460.23L433.313 459.231L438.079 450.523L452.16 455.997L445.222 472.233C444.662 473.544 443.691 474.639 442.456 475.352C441.22 476.064 439.787 476.357 438.371 476.186L392.22 470.611C391.131 471.989 389.648 473.003 387.969 473.518C386.29 474.034 384.494 474.025 382.82 473.495C381.146 472.964 379.673 471.937 378.597 470.548C377.521 469.16 376.893 467.477 376.797 465.724C376.701 463.97 377.141 462.229 378.058 460.731C378.976 459.234 380.328 458.051 381.934 457.341C383.54 456.63 385.325 456.426 387.05 456.754C388.775 457.082 390.36 457.928 391.593 459.179V459.179Z" fill="#FFB7B7"/>
<path d="M524.753 707.256H511.322L504.932 655.449L524.755 655.45L524.753 707.256Z" fill="#FFB7B7"/>
<path d="M528.178 720.276L484.87 720.274V719.727C484.87 715.256 486.646 710.969 489.808 707.808C492.969 704.646 497.256 702.87 501.727 702.87H501.728L528.179 702.871L528.178 720.276Z" fill="#8F4444"/>
<path d="M402.792 706.958L390.441 701.681L404.916 651.529L423.145 659.317L402.792 706.958Z" fill="#FFB7B7"/>
<path d="M400.828 720.276L361.002 703.262L361.217 702.758C362.973 698.647 366.291 695.402 370.44 693.737C374.589 692.072 379.229 692.123 383.34 693.879L383.341 693.879L407.665 704.271L400.828 720.276Z" fill="#8F4444"/>
<path d="M459.468 470.402L458.496 486.141L486.887 489.179L516.593 492.358L507.849 468.459L459.468 470.402Z" fill="#FFB7B7"/>
<path d="M457.602 486.343L446.573 409.456L465.69 403.191L471.304 395.491L498.627 397.107L502.639 406.093L517.208 412.977L514.969 454.559L516.602 489.343L457.602 486.343Z" fill="#8F4444"/>
<path d="M450.661 465.739L431.216 457.959L431.299 457.613C431.382 457.264 439.658 422.681 440.757 417.123C441.902 411.333 446.084 409.733 446.262 409.667L446.391 409.619L454.087 411.962L457.466 438.516L450.661 465.739Z" fill="#8F4444"/>
<path d="M412.796 697.853L386.912 692.543L428.282 578.389L442.44 539.453C442.44 539.453 451.421 508.234 455.478 496.153L457.926 479.943L515.888 486.358C515.888 486.358 532.077 510.133 527.159 548.884L529.383 694.534L503.499 695.862L481.819 548.966L443.768 629.493C443.768 629.493 431.774 663.857 423.193 671.305L412.796 697.853Z" fill="#23292E"/>
<path d="M492.644 491.765C493.1 491.754 493.556 491.779 494.008 491.84L521.048 461.206L517.903 451.791L531.491 445.187L538.679 461.313C539.26 462.616 539.402 464.072 539.085 465.463C538.768 466.853 538.008 468.103 536.92 469.026L501.453 499.078C501.724 500.813 501.459 502.589 500.695 504.171C499.932 505.752 498.704 507.064 497.177 507.931C495.65 508.798 493.894 509.179 492.145 509.024C490.395 508.87 488.735 508.186 487.383 507.064C486.032 505.942 485.054 504.435 484.58 502.744C484.106 501.053 484.158 499.258 484.729 497.597C485.3 495.936 486.363 494.489 487.777 493.447C489.191 492.405 490.889 491.818 492.644 491.765V491.765Z" fill="#FFB7B7"/>
<path d="M518.89 464.187L507.61 437.654L512.009 419.173L516.749 413.184C517.097 413.036 517.471 412.961 517.848 412.965C518.226 412.968 518.599 413.05 518.943 413.205C520.691 413.908 522.18 416.065 523.368 419.614L533.939 449.725L518.89 464.187Z" fill="#8F4444"/>
<path d="M460.367 385.659V365.656C460.367 358.547 463.191 351.729 468.218 346.702C473.245 341.675 480.063 338.851 487.172 338.851C494.281 338.851 501.098 341.675 506.125 346.702C511.152 351.729 513.976 358.547 513.976 365.656V385.659C513.975 386.614 513.595 387.529 512.92 388.204C512.245 388.879 511.33 389.258 510.375 389.26H463.968C463.013 389.258 462.098 388.879 461.423 388.204C460.748 387.529 460.369 386.614 460.367 385.659Z" fill="#8F4444"/>
<path d="M481.664 388.794C492.517 388.794 501.316 379.995 501.316 369.142C501.316 358.288 492.517 349.49 481.664 349.49C470.81 349.49 462.012 358.288 462.012 369.142C462.012 379.995 470.81 388.794 481.664 388.794Z" fill="#FFB7B7"/>
<path d="M454.026 367.256C454.033 361.634 456.268 356.245 460.244 352.27C464.219 348.295 469.608 346.059 475.23 346.053H479.23C484.852 346.059 490.241 348.295 494.216 352.27C498.191 356.245 500.427 361.634 500.434 367.256V367.656H491.979L489.095 359.581L488.519 367.656H484.149L482.694 363.582L482.403 367.656H454.026L454.026 367.256Z" fill="#8F4444"/>
<path d="M479.73 391.509C479.333 390.971 479.096 390.333 479.046 389.666C478.996 389 479.135 388.333 479.448 387.743C483.687 379.679 489.623 364.779 481.744 355.59L481.178 354.93H504.052V389.271L483.273 392.937C483.062 392.975 482.849 392.993 482.635 392.994C482.068 392.994 481.509 392.859 481.004 392.601C480.499 392.343 480.062 391.969 479.73 391.509Z" fill="#8F4444"/>
<path d="M212.904 695.94L225.042 700.278L247.551 655.523L229.636 649.121L212.904 695.94Z" fill="#9F616A"/>
<path d="M205.602 706.6L211.224 690.87L235.129 699.414C239.166 700.862 242.464 703.852 244.3 707.729C246.135 711.606 246.358 716.052 244.919 720.093L244.742 720.588L205.602 706.6Z" fill="#23292E"/>
<path d="M291.836 707.946L304.726 707.945L310.859 658.226L291.834 658.227L291.836 707.946Z" fill="#9F616A"/>
<path d="M288.548 703.737L313.933 703.737H313.934C316.059 703.736 318.163 704.155 320.125 704.968C322.088 705.781 323.872 706.972 325.374 708.475C326.876 709.977 328.068 711.76 328.881 713.723C329.694 715.686 330.112 717.789 330.112 719.914V720.44L288.549 720.441L288.548 703.737Z" fill="#23292E"/>
<path d="M262.459 390.3L268.065 379.223C268.065 379.223 288.949 384.455 290.847 396.559L262.459 390.3Z" fill="#F1F1F1"/>
<path d="M239.328 516.96L254.573 602.034L214.093 673.622L238.276 683.085L279.282 613.691L284.539 594.765L287.693 693.599L309.503 692.937L319.502 600.65L303.464 514.857L239.328 516.96Z" fill="#8F4444"/>
<path d="M268.267 537.071C245.871 537.071 231.651 532.788 231.332 532.72L230.817 532.61L242.482 478.524L243.008 428.635C243.008 407.493 256.922 391.907 258.853 390.468C259.178 389.185 259.779 387.988 260.615 386.961C261.45 385.935 262.5 385.103 263.69 384.523C268.332 382.417 274.003 384.944 274.242 385.053L291.265 391.436L291.345 391.672C291.55 392.277 313.973 465.886 313.973 465.886C313.973 465.886 312.615 530.201 312.142 532.308C312.142 532.308 280.711 537.071 268.267 537.071Z" fill="#23292E"/>
<path d="M285.477 375.735C298.184 375.735 308.485 365.434 308.485 352.727C308.485 340.02 298.184 329.719 285.477 329.719C272.77 329.719 262.469 340.02 262.469 352.727C262.469 365.434 272.77 375.735 285.477 375.735Z" fill="#9F616A"/>
<path opacity="0.2" d="M259.823 432.715L300.076 488.877L306.02 462.65L259.823 432.715Z" fill="black"/>
<path d="M386.023 470.928C384.891 471.824 383.577 472.46 382.172 472.793C380.767 473.125 379.307 473.146 377.894 472.853C376.48 472.56 375.148 471.96 373.991 471.097C372.835 470.233 371.881 469.127 371.199 467.855L336.552 473.401L344.058 456.784L375.808 454.065C378.021 453.06 380.525 452.901 382.847 453.619C385.169 454.336 387.147 455.881 388.406 457.96C389.665 460.038 390.118 462.506 389.679 464.897C389.24 467.287 387.939 469.433 386.024 470.928H386.023Z" fill="#9F616A"/>
<path d="M345.842 455.838L358.291 454.617L361.741 471.983L346.076 472.26L345.842 455.838Z" fill="#F1F1F1"/>
<path d="M356.047 478.034L295.077 472.605L264.291 423.645L264.197 423.212C263.323 419.212 263.935 415.032 265.918 411.45C267.901 407.868 271.12 405.131 274.973 403.749C278.827 402.367 283.051 402.434 286.859 403.939C290.666 405.444 293.796 408.283 295.663 411.926L313.735 447.177L350.208 452.69L356.047 478.034Z" fill="#23292E"/>
<path d="M265.879 372.703L284.976 373.389C286.14 373.431 289.299 360.868 289.713 358.262C290.04 356.565 290.973 355.045 292.338 353.987C293.704 352.928 295.408 352.402 297.132 352.508C298.562 352.643 302.167 349.972 305.886 346.81C312.948 340.806 312.581 329.53 304.823 324.456C304.611 324.318 304.403 324.191 304.199 324.077C299.305 321.337 293.58 320.418 287.972 320.347C282.889 320.284 277.661 320.924 273.182 323.33C265.153 327.644 260.88 337.071 260.504 346.178C260.129 355.285 263.049 364.19 266.362 372.681" fill="#23292E"/>
<path d="M744.602 721.343H1C0.734784 721.343 0.480429 721.238 0.292892 721.05C0.105356 720.863 0 720.608 0 720.343C0 720.078 0.105356 719.824 0.292892 719.636C0.480429 719.449 0.734784 719.343 1 719.343H745C745.265 719.343 745.52 719.449 745.707 719.636C745.895 719.824 746 720.078 746 720.343C746 720.896 745.155 721.343 744.602 721.343Z" fill="#CBCBCB"/>
</g>
<defs>
<clipPath id="clip0">
<rect width="746" height="721.343" fill="white"/>
</clipPath>
</defs>
</svg>
