<svg width="580" height="581" viewBox="0 0 580 581" fill="none" xmlns="http://www.w3.org/2000/svg">
<path d="M552.193 461.787C531.917 393.018 430.142 400.646 386.213 380.897C342.287 361.148 349.144 294.887 343.574 283.359H236.413C230.853 294.887 237.712 361.158 193.774 380.897C149.847 400.646 48.0616 393.02 27.794 461.787C16.6127 499.718 17.1437 511.32 14.0579 553.337C14.0579 553.337 153.71 581 286.841 581C419.972 581 565.94 553.337 565.94 553.337C562.844 511.309 563.375 499.718 552.193 461.787Z" fill="#FAF8F8"/>
<path d="M552.193 461.787C531.917 393.018 430.142 400.646 386.213 380.897C342.287 361.148 349.144 294.887 343.574 283.359H286.831C286.831 283.359 285.524 376.3 329.451 396.049C373.377 415.798 475.163 408.171 495.431 476.939C506.081 513.059 506.101 525.303 508.749 562.683C543.723 557.553 565.922 553.346 565.922 553.346C562.844 511.309 563.375 499.718 552.193 461.787Z" fill="#181717"/>
<path d="M110.232 568.437C160.476 574.907 224.374 581 286.841 581C350.688 581 417.499 574.632 469.735 568.007V526.38C469.735 526.38 366.355 541.91 286.586 541.91C206.817 541.91 110.243 526.38 110.243 526.38V568.437H110.232Z" fill="#181717"/>
<path d="M345.66 412.359C363.373 405.428 377.947 395.22 387.788 382.832L388.544 381.89C387.757 381.562 386.981 381.234 386.224 380.897C342.298 361.148 349.155 294.887 343.585 283.359H236.413C230.853 294.887 237.712 361.158 193.774 380.897C193.018 381.234 192.241 381.573 191.454 381.89L192.21 382.832C202.053 395.209 216.627 405.417 234.338 412.359C251.12 418.922 270.366 422.391 289.999 422.391C309.632 422.391 328.878 418.92 345.66 412.359Z" fill="#EAE5DC"/>
<path d="M386.215 380.895C378.314 377.344 372.07 372.285 367.093 366.316C357.885 377.895 341.95 387.089 322.41 391.992C324.617 393.559 326.969 394.919 329.462 396.036C338.026 399.885 348.798 402.701 360.736 405.24C371.703 399.087 380.9 391.491 387.779 382.828L388.535 381.886C387.748 381.571 386.972 381.234 386.215 380.895Z" fill="#E0DBD3"/>
<path d="M367.091 366.318C344.361 339.084 348.142 292.809 343.585 283.35H236.413C231.845 292.809 235.637 339.086 212.907 366.318C226.827 383.824 256.119 395.885 289.999 395.885C323.879 395.885 353.171 383.824 367.091 366.318Z" fill="#DBB491"/>
<path d="M322.408 391.994C341.95 387.09 357.883 377.895 367.091 366.318C344.361 339.084 348.142 292.809 343.585 283.35H286.841C286.841 283.359 285.677 366.03 322.408 391.994Z" fill="#CCA483"/>
<path d="M221.993 351.84C239.777 366.338 260.616 380.711 289.888 384.868C319.231 380.701 340.019 366.03 357.823 351.473C343.014 324.199 347.593 291.672 343.585 283.348H236.413C232.387 291.681 236.873 324.556 221.993 351.84Z" fill="#C69E7F"/>
<path d="M394.73 212.201C390.929 233.376 397.165 252.22 408.659 254.29C420.153 256.361 432.552 240.874 436.354 219.7C440.155 198.526 433.919 179.682 422.425 177.611C410.931 175.541 398.531 191.027 394.73 212.201Z" fill="#CCA483"/>
<path d="M157.254 177.63C145.76 179.701 139.524 198.545 143.325 219.719C147.127 240.893 159.526 256.38 171.02 254.309C182.514 252.239 188.75 233.395 184.949 212.22C181.147 191.046 168.748 175.56 157.254 177.63Z" fill="#DBB491"/>
<path d="M406.665 86.2761H289.886H173.17C173.17 86.2761 107.728 353.336 289.886 379.187C472.117 353.336 406.665 86.2761 406.665 86.2761Z" fill="#DBB491"/>
<path d="M289.886 379.187C472.117 353.336 406.665 86.2761 406.665 86.2761H379.345C386.826 197.829 397.18 257.087 354.224 321.689C320.19 372.879 289.886 379.187 289.886 379.187Z" fill="#CCA483"/>
<path d="M350.34 100.61L164.216 151.851C179.965 158.168 210.719 169.818 276.498 169.532C313.107 169.368 393.623 158.168 411.427 115.26L350.34 100.61Z" fill="#CCA483"/>
<path d="M341.561 9.98192C341.561 9.98192 305.514 -7.01283 257.048 3.34796C220.766 11.1076 161.723 35.8238 148.436 88.7643C148.436 88.7643 128.558 175.255 162.407 212.502C162.407 212.502 160.741 178.716 164.145 151.822C164.145 151.822 205.672 162.009 253.319 162.111C303.972 162.213 371.508 153.88 411.429 115.262C411.429 115.262 417.419 151.996 417.419 212.504C417.419 212.504 428.202 195.908 430.491 173.875C435.682 123.892 425.494 53.7311 388.137 56.0353C388.126 56.0226 372.304 24.5723 341.561 9.98192Z" fill="#181717"/>
<path d="M423.366 183.753C373.368 166.204 304.963 185.104 304.963 185.104C298.442 186.711 294.078 187.019 291.819 187.039C291.808 187.039 290.001 187.039 290.001 187.039H288.183C285.924 187.019 281.56 186.711 275.028 185.104C275.028 185.104 206.623 166.215 156.624 183.753C156.624 183.753 155.132 190.797 156.624 200.4C156.624 200.4 156.746 201.853 158.363 202.467C158.363 202.467 163.82 204.187 165.231 209.757C165.231 209.757 168.358 222.309 169.369 228.072C169.369 228.072 171.066 239.18 177.147 245.384C177.147 245.384 182.451 252.182 196.045 255.202C196.045 255.202 213.727 259.757 235.751 257.127C235.751 257.127 251.48 255.193 259.565 247.586C259.565 247.586 268.488 239.928 273.434 225.114C273.434 225.114 274.977 220.558 278.289 210.667C278.289 210.667 279.883 203.921 289.981 203.48C300.089 203.921 301.673 210.667 301.673 210.667C304.984 220.558 306.528 225.114 306.528 225.114C311.474 239.939 320.397 247.586 320.397 247.586C328.482 255.193 344.21 257.127 344.21 257.127C366.235 259.757 383.917 255.202 383.917 255.202C397.5 252.182 402.815 245.384 402.815 245.384C408.907 239.18 410.592 228.072 410.592 228.072C411.603 222.298 414.731 209.757 414.731 209.757C416.142 204.187 421.599 202.467 421.599 202.467C423.214 201.862 423.336 200.4 423.336 200.4C424.858 190.797 423.366 183.753 423.366 183.753ZM269.804 210.964C269.804 210.964 263.969 237.389 254.166 244.586C254.166 244.586 244.681 252.418 226.121 252.735C226.121 252.735 198.474 253.943 186.088 244.699C186.088 244.699 177.932 238.905 175.305 220.485C175.305 220.485 171.799 198.964 176.316 192.822C176.316 192.822 182.447 182.574 200.998 182.891C200.998 182.891 216.798 182.574 229.667 183.853C229.667 183.853 245.621 185.081 259.798 189.678C259.788 189.66 275.221 193.939 269.804 210.964ZM404.683 220.476C402.055 238.894 393.9 244.69 393.9 244.69C381.513 253.945 353.866 252.726 353.866 252.726C335.306 252.409 325.821 244.577 325.821 244.577C316.02 237.369 310.183 210.955 310.183 210.955C304.766 193.93 320.19 189.651 320.19 189.651C334.366 185.053 350.32 183.826 350.32 183.826C363.187 182.545 378.989 182.864 378.989 182.864C397.549 182.547 403.672 192.795 403.672 192.795C408.188 198.946 404.683 220.476 404.683 220.476Z" fill="#181717"/>
</svg>
