<svg width="1921" height="992" viewBox="0 0 1921 992" fill="none" xmlns="http://www.w3.org/2000/svg">
<g clip-path="url(#clip0)">
<path d="M1863.53 2.28781C1882.02 1.30781 1900.54 0.79781 1919.04 0.0678101C1919.06 209.198 1919.05 418.338 1919.05 627.468C1919.15 638.528 1918.81 649.598 1919.27 660.658C1911.02 667.088 1903.77 674.928 1894.51 679.968C1859.51 700.638 1824.96 722.078 1789.49 741.938C1775.2 749.958 1761.09 758.288 1746.71 766.128C1725.28 777.058 1703.85 787.968 1682.47 798.988C1680.71 799.758 1678.96 801.218 1676.94 800.658C1673.49 799.908 1670.2 801.728 1666.83 802.108C1655.46 804.278 1644.14 800.328 1633.99 795.548C1622.87 790.388 1614.01 781.488 1606.64 771.888C1594.29 755.588 1585.62 736.928 1577.1 718.438C1572.93 708.918 1566.64 700.478 1562.79 690.808C1561.96 688.628 1561.7 686.308 1561.45 684.028C1562.86 683.418 1564.28 682.778 1565.75 682.248C1564.74 684.108 1562.93 686.078 1563.94 688.338C1565.8 694.618 1569.48 700.138 1572.63 705.818C1577.85 714.378 1581.33 723.828 1585.77 732.788C1594.27 749.828 1603.37 766.978 1616.71 780.788C1625.67 790.158 1637.57 796.258 1650 799.588C1657.63 801.638 1665.75 801.038 1673.28 798.848C1674.35 798.388 1676.57 798.128 1676.1 796.418C1674.35 783.408 1671.91 770.478 1670.03 757.478C1668.96 749.008 1666.05 740.968 1663.74 732.808C1660.44 721.408 1657.2 709.988 1653.87 698.598C1650.37 687.858 1646.67 677.178 1643.03 666.488C1639.51 655.948 1635.94 645.428 1632.39 634.898C1630.15 627.668 1626.45 621.018 1623.4 614.128C1617.27 600.918 1611.13 587.718 1604.98 574.518C1601.55 567.788 1599.81 560.398 1597.43 553.278C1590.43 531.498 1583.77 509.608 1576.57 487.898C1566.49 466.738 1556.05 445.738 1545.89 424.618C1537.9 407.578 1530.03 390.488 1522.08 373.448C1520.27 369.658 1518.78 365.668 1516.21 362.318C1503.77 345.748 1491.3 329.198 1478.87 312.618C1474.31 306.848 1470.33 300.608 1465.32 295.208C1450.22 280.308 1435.09 265.438 1420.01 250.508C1417.23 247.938 1414.89 244.448 1410.98 243.558C1400.41 240.328 1389.88 236.998 1379.33 233.738C1372.82 231.618 1366.2 229.838 1359.77 227.488C1378.3 218.438 1397.18 210.118 1415.81 201.278C1430.93 194.358 1445.85 186.978 1461.11 180.348C1500.96 164.568 1540.68 148.458 1580.6 132.878C1603.39 125.098 1626.2 117.358 1649.02 109.648C1654.22 108.008 1657.71 103.508 1661.97 100.358C1669.84 93.9179 1677.48 87.1679 1685.5 80.9079C1693.78 75.7679 1702.23 70.8879 1710.65 65.9779C1721.9 60.4679 1733.41 55.4879 1744.73 50.1379C1751.57 46.5379 1759.41 45.9079 1766.78 43.9279C1778.84 41.1679 1790.95 38.5379 1802.87 35.2179C1809.52 31.0879 1815.41 25.7679 1821.74 21.1379C1827.46 16.1579 1834.99 14.3079 1841.72 11.1479C1849.04 8.3278 1856.05 4.61781 1863.53 2.28781ZM1731.38 684.878C1720.11 686.298 1711.29 697.248 1712.06 708.538C1712.45 720.288 1723.19 730.588 1735.05 729.978C1747.84 730.518 1758.98 718.118 1757.45 705.478C1756.96 692.688 1743.87 682.628 1731.38 684.878Z" fill="#8F4444" stroke="#8F4444" stroke-width="0.0938"/>
<path d="M0.046875 80.1778C8.69687 86.9678 17.3469 93.7678 26.0969 100.428C32.9369 104.478 40.3069 107.548 47.2969 111.318C52.3669 114.298 58.4169 114.098 64.0469 115.018C79.2169 117.118 94.4569 118.748 109.577 121.108C133.347 129.488 156.927 138.458 180.647 147.018C187.057 149.198 192.997 152.488 199.097 155.398C217.297 164.188 235.457 173.088 253.667 181.858C262.727 186.178 271.587 190.918 280.897 194.668C306.717 205.478 332.517 216.338 358.327 227.158C377.037 234.788 395.387 243.378 414.537 249.868C434.357 257.028 454.287 263.878 474.037 271.208C472.567 273.448 471.167 275.728 469.687 277.948C461.467 290.478 453.327 303.058 445.157 315.618C442.687 319.498 439.917 323.218 437.987 327.408C423.437 357.478 408.667 387.438 394.187 417.538C364.367 495.778 334.787 574.108 304.887 652.318C302.577 658.908 299.477 665.248 297.797 672.058C294.187 690.338 290.517 708.608 286.967 726.898C282.957 746.758 279.157 766.648 275.037 786.488C270.617 803.098 269.167 820.328 264.447 836.878C262.867 843.548 260.017 849.868 258.787 856.638C262.827 853.568 266.177 849.748 269.777 846.198C275.977 840.058 282.127 833.868 288.307 827.708C293.107 822.918 295.897 816.638 299.577 811.048C307.277 798.828 314.667 786.428 321.317 773.608C328.577 762.068 331.187 748.498 335.897 735.868C336.367 735.998 337.317 736.258 337.797 736.388C334.077 746.168 331.437 756.328 327.537 766.038C320.227 779.588 313.087 793.258 304.757 806.228C300.267 813.088 296.537 820.488 291.557 826.998C278.517 839.968 265.687 853.148 252.427 865.888C247.557 871.038 243.187 876.648 238.137 881.638C210.807 869.818 183.657 857.588 156.037 846.448C127.587 834.588 98.8869 823.318 70.6969 810.818C59.0769 805.788 47.4769 800.718 35.8469 795.688C23.9769 790.898 11.9269 786.558 0.046875 781.788V80.1778H0.046875ZM196.337 756.768C186.167 759.088 178.387 769.008 178.937 779.498C178.917 791.528 190.027 802.238 202.077 801.568C214.607 801.808 225.647 789.958 224.377 777.458C224.047 763.788 209.497 753.128 196.337 756.768Z" fill="#8F4444" stroke="#8F4444" stroke-width="0.0938"/>
<path d="M912.697 233.248C923.027 229.428 934.137 228.838 944.997 227.768C963.947 226.058 983.377 227.668 1001.33 234.228C1024.41 242.748 1049.07 244.868 1073 249.808C1099.06 255.698 1125.13 261.588 1151.3 266.988C1181.95 272.758 1212.11 280.758 1242.38 288.188C1265.9 292.548 1289.84 287.948 1312.99 283.528C1324.04 281.308 1334.2 276.288 1344.09 271.038C1346.29 275.538 1346.78 280.588 1348.06 285.378C1349.96 292.908 1351.25 300.598 1353.54 308.028C1359.94 324.718 1366.64 341.308 1371.97 358.388C1376.2 371.398 1381.09 384.218 1383.95 397.638C1388.39 417.618 1395.48 436.848 1401.15 456.478C1411.88 503.768 1422.51 551.078 1433.24 598.368C1433.47 600.278 1434.61 602.268 1434.06 604.188C1427.65 607.588 1422.15 612.438 1417.83 618.258C1412.64 625.368 1405.38 630.478 1399.09 636.508C1391.48 643.638 1383.44 650.298 1374.98 656.398C1369.52 660.358 1365.04 666.658 1358.09 667.898C1353.09 664.148 1349.17 659.148 1344.65 654.868C1330.95 640.878 1317.45 626.728 1303.97 612.538C1297.87 606.328 1292.15 599.698 1285.43 594.118C1269.71 580.818 1251.3 571.388 1233.85 560.658C1204.63 542.238 1176.66 521.948 1148.44 502.068C1113.25 477.408 1077.37 453.758 1041.63 429.898C1025.75 419.468 1010.41 408.248 994.297 398.188C975.817 386.658 956.387 376.078 935.237 370.418C921.987 366.928 907.987 365.598 894.437 367.998C880.667 370.608 867.187 374.618 854.117 379.628C807.677 397.348 767.367 427.378 722.077 447.518C704.937 455.268 687.307 461.908 669.467 467.838C664.247 469.078 658.817 467.848 653.677 466.778C648.607 465.438 642.997 464.248 639.367 460.148C636.397 457.088 633.307 454.088 630.977 450.498C628.097 446.058 628.257 440.558 628.057 435.488C628.037 432.248 627.607 428.728 629.437 425.858C632.467 420.738 636.977 416.718 641.497 412.938C649.537 406.448 658.217 400.808 666.997 395.378C674.897 390.418 683.197 385.908 689.977 379.388C714.317 356.258 724.207 322.128 748.547 298.988C757.437 290.768 768.937 286.118 780.477 283.018C808.147 275.478 836.007 268.158 862.487 256.978C879.457 249.568 895.217 239.518 912.697 233.248Z" fill="#8F4444" stroke="#8F4444" stroke-width="0.0938"/>
<path d="M579.157 368.718C581.907 360.238 582.747 351.188 585.777 342.798C598.877 346.858 612.587 348.328 626.157 349.848C650.057 352.508 674.207 352.178 698.107 349.758C693.517 357.478 687.777 364.528 681.267 370.698C675.317 376.378 667.997 380.218 661.117 384.588C649.787 391.678 638.397 398.878 628.557 407.988C622.317 413.968 615.797 421.288 615.817 430.458C615.917 438.738 615.477 447.558 619.457 455.118C622.557 460.748 627.187 465.308 631.677 469.828C636.747 475.068 644.107 476.948 650.947 478.708C658.637 480.278 666.917 482.028 674.507 479.098C697.807 471.238 720.787 462.298 742.787 451.258C784.477 430.578 822.937 403.098 867.237 387.878C872.077 386.478 876.807 384.078 881.977 384.288C894.307 384.328 907.227 381.658 919.037 386.478C942.407 394.518 965.527 404.198 985.487 419.018C1019.89 444.698 1057.79 465.048 1094.6 486.968C1125.47 505.208 1154.61 526.138 1184.27 546.228C1203.94 559.648 1223.73 572.898 1243.91 585.558C1260.3 595.498 1276.08 606.478 1290.96 618.608C1303.61 628.528 1313.74 641.128 1325.11 652.408C1339.25 666.098 1347.41 684.508 1353.7 702.848C1356.41 712.438 1356.43 722.528 1356.32 732.418C1356.13 742.248 1352.07 751.388 1347.51 759.908C1342.86 769.348 1336.36 777.998 1328.08 784.558C1325.01 786.818 1321.26 789.528 1317.25 788.188C1297.36 783.468 1277.83 776.928 1259.43 767.988C1227.57 750.848 1203 723.538 1173.42 703.138C1154.81 689.988 1135.14 678.438 1115.38 667.128C1110.66 664.628 1106.28 661.438 1101.31 659.468C1099.7 662.638 1097.86 665.678 1096.07 668.748C1092.39 667.508 1087.51 671.298 1089.24 675.128C1093.56 678.588 1098.32 681.458 1102.8 684.728C1106.69 687.118 1109.56 690.878 1113.84 692.678C1125.2 700.448 1136.51 708.368 1148.67 714.868C1152.78 716.978 1156.78 719.608 1161.47 720.208C1172.35 730.598 1182.59 741.698 1194.07 751.458C1196.01 752.928 1197.29 754.998 1198.35 757.158C1203.54 767.298 1211.1 775.948 1216.64 785.878C1220.34 792.488 1223.5 799.708 1223.81 807.398C1223.97 820.558 1223.52 834.038 1218.92 846.538C1216.44 852.978 1214.26 859.758 1209.7 865.098C1203.68 872.318 1195.76 877.708 1187.47 882.008C1185.41 883.018 1183.36 884.198 1181.07 884.538C1162.19 885.598 1142.94 882.068 1125.97 873.618C1106.52 864.178 1090.35 849.468 1074.94 834.578C1050.44 811.068 1026.9 785.728 997.217 768.598C995.147 772.128 993.047 775.638 991.187 779.288C1009 789.478 1024.47 803.158 1039.34 817.168C1053.36 830.478 1066.88 844.318 1081.26 857.248C1095.12 869.668 1110.47 880.868 1127.85 887.798C1128.42 892.558 1129.33 897.608 1128.2 902.318C1124.82 908.108 1123.65 914.748 1121.6 921.048C1119.69 926.028 1115.55 929.618 1112.01 933.428C1109.08 936.638 1104.72 937.808 1100.76 939.178C1091.41 941.878 1081.91 945.958 1071.97 944.408C1066.44 943.408 1060.91 942.358 1055.46 941.008C1044.51 937.028 1034.15 931.588 1023.27 927.438C1018.59 925.838 1014.94 922.398 1011.03 919.538C995.107 907.178 980.517 893.208 964.337 881.188C955.387 874.468 946.467 867.688 937.377 861.158C926.087 854.588 912.507 854.758 899.927 852.888C899.247 856.908 898.387 860.908 898.117 864.988C908.877 866.678 920.307 866.428 930.317 871.188C945.057 882.058 959.957 892.768 973.977 904.568C985.547 914.428 996.927 924.538 1009.21 933.528C1009.45 942.548 1006.36 951.338 1003.08 959.618C999.207 962.368 994.407 963.528 990.207 965.718C980.017 971.078 967.987 972.278 956.707 970.668C949.337 969.798 943.887 964.408 937.807 960.738C929.847 955.728 922.417 949.828 914.077 945.468C908.777 942.688 902.827 944.758 898.107 947.668C877.917 929.358 864.697 905.068 846.737 884.808C844.407 882.498 844.997 878.418 841.687 876.878C834.347 875.838 826.857 875.228 819.477 876.038C816.997 876.648 814.537 875.868 812.107 875.498C807.747 874.738 803.317 874.538 798.917 874.178C802.017 868.298 804.937 862.188 805.827 855.538C807.277 844.808 806.787 833.598 803.017 823.368C801.407 818.898 799.237 814.668 796.987 810.498C793.727 804.628 790.897 798.278 785.617 793.888C777.087 786.538 766.707 780.198 755.137 779.888C747.677 779.498 740.007 779.088 732.737 781.178C728.647 782.258 724.777 783.968 720.887 785.588C716.767 774.178 711.757 762.918 704.277 753.268C696.427 743.058 685.447 734.728 672.637 732.128C661.167 729.978 649.387 732.458 638.456 736.038C631.496 738.618 624.197 740.988 618.407 745.818C614.637 748.908 612.027 753.088 609.227 757.008C588.237 738.998 566.156 721.178 539.836 711.658C535.656 709.868 530.536 709.708 527.516 705.918C524.856 705.528 522.866 707.918 520.986 709.438C517.676 712.438 515.656 716.528 514.196 720.698C507.766 722.948 501.386 725.358 494.936 727.528C494.266 725.258 493.966 722.908 494.196 720.568C494.996 705.168 495.626 689.768 496.396 674.368C496.536 670.788 497.626 667.348 498.366 663.868C508.766 617.878 519.156 571.878 529.546 525.888C532.206 512.668 537.006 500.038 540.806 487.138C544.776 475.538 547.336 463.548 550.386 451.698C552.336 443.168 555.536 435.008 558.206 426.688C562.206 415.058 565.696 403.248 570.266 391.828C573.207 384.118 576.207 376.428 579.157 368.718Z" fill="#8F4444" stroke="#8F4444" stroke-width="0.0938"/>
<path d="M529.687 767.558C526.837 752.168 528.437 736.438 528.867 720.918C556.427 729.048 579.197 747.448 600.657 765.818C604.797 769.018 608.337 773.018 612.837 775.738C616.257 769.738 619.397 763.518 623.597 757.998C626.907 753.628 632.177 751.548 637.107 749.588C647.467 745.608 658.667 742.438 669.857 744.058C680.707 746.188 689.657 753.798 695.937 762.608C704.577 774.618 709.357 788.828 713.147 802.988C722.837 798.738 732.107 792.478 742.957 791.828C748.807 791.668 754.747 791.748 760.487 792.988C766.787 795.048 772.537 798.658 777.477 803.058C781.457 806.378 783.307 811.358 785.847 815.728C789.947 823.048 793.567 830.918 794.087 839.428C794.777 848.148 794.237 857.398 789.737 865.138C785.777 872.368 780.987 879.098 776.907 886.258C787.937 886.348 799.047 885.928 809.997 887.518C821.577 889.288 832.077 894.798 842.137 900.508C845.297 901.368 846.857 904.368 848.767 906.758C860.917 922.768 872.077 939.728 886.617 953.748C869.287 963.258 849.247 970.638 829.197 967.358C824.777 966.648 820.247 966.508 815.897 965.508C809.607 960.588 807.077 952.528 801.837 946.668C796.477 940.648 789.987 935.758 783.437 931.108C776.057 926.208 768.467 921.198 759.827 918.848C747.457 916.068 734.787 914.248 722.897 909.668C719.327 908.198 715.487 906.608 713.237 903.298C708.647 896.918 703.027 891.278 699.077 884.438C695.397 878.108 695.937 870.498 695.717 863.458C695.767 857.388 694.957 851.368 694.577 845.328C685.517 849.118 678.757 856.808 670.437 861.898C668.207 863.128 665.707 864.568 663.067 863.858C656.437 862.628 649.767 861.458 643.367 859.338C634.307 856.478 626.567 850.788 618.397 846.138C614.417 844.008 611.627 840.118 610.957 835.648C608.017 818.478 606.667 801.028 606.827 783.598C596.087 787.098 585.637 793.548 573.947 792.198C560.847 790.608 548.637 785.188 536.747 779.748C532.067 777.638 530.787 772.078 529.687 767.558Z" fill="#8F4444" stroke="#8F4444" stroke-width="0.0938"/>
<path d="M1919.04 0.0677948L1920.05 0.0477905V659.948L1919.27 660.658C1918.81 649.598 1919.15 638.528 1919.05 627.468C1919.05 418.338 1919.06 209.198 1919.04 0.0677948Z" fill="#1A1A1A" stroke="#1A1A1A" stroke-width="0.0938"/>
<path d="M938.177 216.668C957.987 214.018 978.457 214.908 997.637 220.838C1004.72 223.078 1011.76 225.488 1018.93 227.458C1040.99 233.048 1063.74 235.198 1085.81 240.698C1105.74 245.148 1125.68 249.548 1145.64 253.878C1158.32 256.448 1171.04 258.838 1183.66 261.758C1203.6 266.108 1223.26 271.648 1243.12 276.338C1265.39 281.068 1287.96 275.958 1309.98 272.338C1318.83 270.518 1327.06 266.578 1335.07 262.498C1336.26 261.718 1338.14 261.158 1337.99 259.378C1337.3 256.258 1335.95 253.328 1334.69 250.418C1339.29 246.268 1345.56 245.048 1351 242.378C1355.83 240.018 1361.22 239.488 1366.51 238.988C1371.22 238.588 1375.31 236.018 1379.33 233.738C1389.88 236.998 1400.41 240.328 1410.98 243.558C1414.89 244.448 1417.23 247.938 1420.01 250.508C1435.09 265.438 1450.22 280.308 1465.32 295.208C1470.33 300.608 1474.31 306.848 1478.87 312.618C1491.3 329.198 1503.77 345.748 1516.21 362.318C1518.78 365.668 1520.27 369.658 1522.08 373.448C1530.03 390.488 1537.9 407.578 1545.89 424.618C1556.05 445.738 1566.49 466.738 1576.57 487.898C1583.77 509.608 1590.43 531.498 1597.43 553.278C1599.81 560.398 1601.55 567.788 1604.98 574.518C1611.13 587.718 1617.27 600.918 1623.4 614.128C1626.45 621.018 1630.15 627.668 1632.39 634.898C1635.94 645.428 1639.51 655.948 1643.03 666.488C1631.35 668.378 1619.71 670.508 1608.06 672.548C1593.9 675.528 1579.89 679.198 1565.75 682.248C1564.28 682.778 1562.86 683.418 1561.45 684.028C1552.09 687.498 1542.93 691.438 1533.62 695.008C1523.35 699.928 1511.78 700.118 1500.75 702.058C1490.09 702.918 1481.78 710.248 1472.69 715.068C1467.64 717.598 1462.74 722.508 1456.64 720.838C1446.16 718.748 1435.54 717.488 1425.11 715.238C1425.76 708.658 1428.17 702.458 1429.72 696.068C1432.06 686.548 1434.69 677.098 1437.24 667.628C1439.5 658.698 1437.37 649.518 1437.22 640.488C1437.22 633.098 1436.44 625.758 1435.89 618.398C1429.58 621.588 1426.66 628.418 1421.66 633.068C1414.69 639.428 1407.57 645.628 1400.66 652.058C1392.69 659.168 1383.69 665.008 1375.77 672.198C1371.19 676.538 1365.4 679.058 1359.67 681.468C1362.57 691.358 1366.96 700.748 1369.8 710.668C1372.83 720.578 1375.13 731.138 1373.06 741.488C1371.44 751.118 1365.78 759.298 1361.24 767.728C1356.64 775.298 1352.47 783.268 1346.32 789.728C1341.18 795.068 1335.64 800.428 1328.51 802.938C1318.11 807.298 1306.45 805.368 1295.94 802.478C1270.39 795.458 1248.73 779.368 1228.02 763.498C1226.77 762.668 1225.47 761.958 1224.2 761.248C1226.99 766.358 1231 770.758 1233.23 776.188C1236.12 783.258 1237.43 790.838 1238.21 798.408C1240.07 817.418 1240.59 837.418 1232.91 855.338C1228.85 865.718 1221.53 874.368 1213.82 882.238C1206.59 888.888 1198.17 895.408 1188.09 896.538C1182.27 897.428 1176.66 899.358 1170.81 900.038C1161.49 901.278 1151.66 901.258 1143.05 905.468C1140.34 906.598 1140.38 909.898 1139.76 912.328C1138.69 919.448 1135.64 926.118 1131.7 932.098C1127.09 939.408 1119.51 943.958 1113.34 949.778C1104.68 957.688 1092.59 960.738 1081.08 960.238C1071.69 959.428 1062.54 956.958 1053.68 953.808C1044.64 951.328 1035.4 949.338 1026.94 945.138C1022.19 951.188 1024.13 960.898 1017.23 965.628C1011.38 969.508 1008.64 976.298 1003.36 980.788C998.297 986.028 991.107 988.518 983.997 989.278C973.837 990.548 963.287 993.188 953.177 990.278C944.627 987.018 936.257 983.298 927.907 979.568C920.637 976.268 913.127 973.428 906.327 969.208C903.157 967.388 900.327 964.968 896.937 963.578C894.427 963.908 892.237 965.288 890.007 966.368C871.857 975.398 851.757 982.558 831.167 980.118C823.457 978.848 815.037 979.398 808.057 975.418C801.167 970.448 798.067 962.108 792.827 955.678C787.947 949.838 781.767 945.298 775.627 940.888C768.577 936.058 760.987 931.538 752.477 929.948C741.407 927.818 730.317 925.558 719.667 921.798C714.837 920.048 709.957 917.928 706.247 914.278C703.027 911.088 700.667 907.188 697.797 903.728C693.067 897.928 687.967 892.118 685.637 884.868C683.837 879.848 684.397 874.318 682.427 869.348C676.187 872.788 669.717 877.498 662.177 876.238C649.087 874.138 635.607 871.478 624.277 864.208C617.467 859.778 609.707 856.478 604.267 850.238C599.977 845.458 598.507 838.938 597.757 832.738C596.687 822.628 595.287 812.538 594.807 802.368C589.307 802.638 584.077 804.738 578.557 804.738C565.217 805.048 552.547 800.038 540.397 795.098C535.067 792.668 529.117 790.898 524.957 786.578C519.647 780.308 517.537 772.048 516.527 764.068C515.407 754.198 516.557 744.248 515.867 734.358C510.987 734.678 506.397 736.488 501.897 738.278C500.597 738.868 498.617 739.558 499.147 741.408C499.867 747.108 502.087 752.478 503.357 758.078C504.657 764.068 507.377 769.878 506.917 776.138C497.567 777.958 488.127 779.328 478.777 781.158C475.437 781.658 471.707 782.928 468.607 780.938C460.387 776.168 452.187 771.348 444.027 766.488C438.117 763.138 431.147 762.978 424.617 761.778C418.187 760.598 411.497 760.558 405.327 758.208C393.767 753.878 382.427 749.018 370.907 744.598C360.037 741.218 348.727 739.538 337.797 736.388C337.317 736.258 336.367 735.998 335.897 735.868C326.987 733.468 317.837 732.238 308.787 730.568C301.507 729.378 294.287 727.798 286.967 726.898C290.517 708.608 294.187 690.338 297.797 672.058C299.477 665.248 302.577 658.908 304.887 652.318C334.787 574.108 364.367 495.778 394.187 417.538C408.667 387.438 423.437 357.478 437.987 327.408C439.917 323.218 442.687 319.498 445.157 315.618C453.327 303.058 461.467 290.478 469.687 277.948C480.947 280.858 492.347 283.148 503.627 285.968C512.967 288.788 522.127 292.158 531.407 295.148C539.397 297.538 547.837 297.408 556.037 298.568C565.047 299.868 574.557 299.488 582.917 303.608C587.657 305.918 592.907 307.278 597.247 310.358C598.757 311.358 597.707 313.408 597.317 314.748C595.017 320.148 591.777 325.088 589.697 330.598C591.607 331.618 593.607 332.488 595.767 332.848C620.187 337.768 645.167 340.018 670.067 339.498C680.717 338.848 691.347 337.908 701.997 337.288C706.327 337.328 708.657 333.208 710.547 329.938C714.387 322.678 719.227 316.028 723.867 309.278C732.867 295.478 745.017 283.248 760.457 276.908C778.337 269.508 797.587 266.378 815.927 260.378C834.517 254.828 852.917 248.368 870.277 239.618C885.007 231.898 899.787 223.858 915.907 219.378C923.147 217.288 930.747 217.568 938.177 216.668ZM912.697 233.248C895.217 239.518 879.457 249.568 862.487 256.978C836.007 268.158 808.147 275.478 780.477 283.018C768.937 286.118 757.437 290.768 748.547 298.988C724.207 322.128 714.317 356.258 689.977 379.388C683.197 385.908 674.897 390.418 666.997 395.378C658.217 400.808 649.537 406.448 641.497 412.938C636.977 416.718 632.467 420.738 629.437 425.858C627.607 428.728 628.037 432.248 628.057 435.488C628.257 440.558 628.097 446.058 630.977 450.498C633.307 454.088 636.397 457.088 639.367 460.148C642.997 464.248 648.607 465.438 653.677 466.778C658.817 467.848 664.247 469.078 669.467 467.838C687.307 461.908 704.937 455.268 722.077 447.518C767.367 427.378 807.677 397.348 854.117 379.628C867.187 374.618 880.667 370.608 894.437 367.998C907.987 365.598 921.987 366.928 935.237 370.418C956.387 376.078 975.817 386.658 994.297 398.188C1010.41 408.248 1025.75 419.468 1041.63 429.898C1077.37 453.758 1113.25 477.408 1148.44 502.068C1176.66 521.948 1204.63 542.238 1233.85 560.658C1251.3 571.388 1269.71 580.818 1285.43 594.118C1292.15 599.698 1297.87 606.328 1303.97 612.538C1317.45 626.728 1330.95 640.878 1344.65 654.868C1349.17 659.148 1353.09 664.148 1358.09 667.898C1365.04 666.658 1369.52 660.358 1374.98 656.398C1383.44 650.298 1391.48 643.638 1399.09 636.508C1405.38 630.478 1412.64 625.368 1417.83 618.258C1422.15 612.438 1427.65 607.588 1434.06 604.188C1434.61 602.268 1433.47 600.278 1433.24 598.368C1422.51 551.078 1411.88 503.768 1401.15 456.478C1395.48 436.848 1388.39 417.618 1383.95 397.638C1381.09 384.218 1376.2 371.398 1371.97 358.388C1366.64 341.308 1359.94 324.718 1353.54 308.028C1351.25 300.598 1349.96 292.908 1348.06 285.378C1346.78 280.588 1346.29 275.538 1344.09 271.038C1334.2 276.288 1324.04 281.308 1312.99 283.528C1289.84 287.948 1265.9 292.548 1242.38 288.188C1212.11 280.758 1181.95 272.758 1151.3 266.988C1125.13 261.588 1099.06 255.698 1073 249.808C1049.07 244.868 1024.41 242.748 1001.33 234.228C983.377 227.668 963.947 226.058 944.997 227.768C934.137 228.838 923.027 229.428 912.697 233.248ZM579.157 368.718C576.207 376.428 573.207 384.118 570.267 391.828C565.697 403.248 562.207 415.058 558.207 426.688C555.537 435.008 552.337 443.168 550.387 451.698C547.337 463.548 544.777 475.538 540.807 487.138C537.007 500.038 532.207 512.668 529.547 525.888C519.157 571.878 508.767 617.878 498.367 663.868C497.627 667.348 496.537 670.788 496.397 674.368C495.627 689.768 494.997 705.168 494.197 720.568C493.967 722.908 494.267 725.258 494.937 727.528C501.387 725.358 507.767 722.948 514.197 720.698C515.657 716.528 517.677 712.438 520.987 709.438C522.867 707.918 524.857 705.528 527.517 705.918C530.537 709.708 535.657 709.868 539.837 711.658C566.157 721.178 588.237 738.998 609.227 757.008C612.027 753.088 614.637 748.908 618.407 745.818C624.197 740.988 631.497 738.618 638.457 736.038C649.387 732.458 661.167 729.978 672.637 732.128C685.447 734.728 696.427 743.058 704.277 753.268C711.757 762.918 716.767 774.178 720.887 785.588C724.777 783.968 728.647 782.258 732.737 781.178C740.007 779.088 747.677 779.498 755.137 779.888C766.707 780.198 777.087 786.538 785.617 793.888C790.897 798.278 793.727 804.628 796.987 810.498C799.237 814.668 801.407 818.898 803.017 823.368C806.787 833.598 807.277 844.808 805.827 855.538C804.937 862.188 802.017 868.298 798.917 874.178C803.317 874.538 807.747 874.738 812.107 875.498C814.537 875.868 816.997 876.648 819.477 876.038C826.857 875.228 834.347 875.838 841.687 876.878C844.997 878.418 844.407 882.498 846.737 884.808C864.697 905.068 877.917 929.358 898.107 947.668C902.827 944.758 908.777 942.688 914.077 945.468C922.417 949.828 929.847 955.728 937.807 960.738C943.887 964.408 949.337 969.798 956.707 970.668C967.987 972.278 980.017 971.078 990.207 965.718C994.407 963.528 999.207 962.368 1003.08 959.618C1006.36 951.338 1009.45 942.548 1009.21 933.528C996.927 924.538 985.547 914.428 973.977 904.568C959.957 892.768 945.057 882.058 930.317 871.188C920.307 866.428 908.877 866.678 898.117 864.988C898.387 860.908 899.247 856.908 899.927 852.888C912.507 854.758 926.087 854.588 937.377 861.158C946.467 867.688 955.387 874.468 964.337 881.188C980.517 893.208 995.107 907.178 1011.03 919.538C1014.94 922.398 1018.59 925.838 1023.27 927.438C1034.15 931.588 1044.51 937.028 1055.46 941.008C1060.91 942.358 1066.44 943.408 1071.97 944.408C1081.91 945.958 1091.41 941.878 1100.76 939.178C1104.72 937.808 1109.08 936.638 1112.01 933.428C1115.55 929.618 1119.69 926.028 1121.6 921.048C1123.65 914.748 1124.82 908.108 1128.2 902.318C1129.33 897.608 1128.42 892.558 1127.85 887.798C1110.47 880.868 1095.12 869.668 1081.26 857.248C1066.88 844.318 1053.36 830.478 1039.34 817.168C1024.47 803.158 1009 789.478 991.187 779.288C993.047 775.638 995.147 772.128 997.217 768.598C1026.9 785.728 1050.44 811.068 1074.94 834.578C1090.35 849.468 1106.52 864.178 1125.97 873.618C1142.94 882.068 1162.19 885.598 1181.07 884.538C1183.36 884.198 1185.41 883.018 1187.47 882.008C1195.76 877.708 1203.68 872.318 1209.7 865.098C1214.26 859.758 1216.44 852.978 1218.92 846.538C1223.52 834.038 1223.97 820.558 1223.81 807.398C1223.5 799.708 1220.34 792.488 1216.64 785.878C1211.1 775.948 1203.54 767.298 1198.35 757.158C1197.29 754.998 1196.01 752.928 1194.07 751.458C1182.59 741.698 1172.35 730.598 1161.47 720.208C1156.78 719.608 1152.78 716.978 1148.67 714.868C1136.51 708.368 1125.2 700.448 1113.84 692.678C1109.56 690.878 1106.69 687.118 1102.8 684.728C1098.32 681.458 1093.56 678.588 1089.24 675.128C1087.51 671.298 1092.39 667.508 1096.07 668.748C1097.86 665.678 1099.7 662.638 1101.31 659.468C1106.28 661.438 1110.66 664.628 1115.38 667.128C1135.14 678.438 1154.81 689.988 1173.42 703.138C1203 723.538 1227.57 750.848 1259.43 767.988C1277.83 776.928 1297.36 783.468 1317.25 788.188C1321.26 789.528 1325.01 786.818 1328.08 784.558C1336.36 777.998 1342.86 769.348 1347.51 759.908C1352.07 751.388 1356.13 742.248 1356.32 732.418C1356.43 722.528 1356.41 712.438 1353.7 702.848C1347.41 684.508 1339.25 666.098 1325.11 652.408C1313.74 641.128 1303.61 628.528 1290.96 618.608C1276.08 606.478 1260.3 595.498 1243.91 585.558C1223.73 572.898 1203.94 559.648 1184.27 546.228C1154.61 526.138 1125.47 505.208 1094.6 486.968C1057.79 465.048 1019.89 444.698 985.487 419.018C965.527 404.198 942.407 394.518 919.037 386.478C907.227 381.658 894.307 384.328 881.977 384.288C876.807 384.078 872.077 386.478 867.237 387.878C822.937 403.098 784.477 430.578 742.787 451.258C720.787 462.298 697.807 471.238 674.507 479.098C666.917 482.028 658.637 480.278 650.947 478.708C644.107 476.948 636.747 475.068 631.677 469.828C627.187 465.308 622.557 460.748 619.457 455.118C615.477 447.558 615.917 438.738 615.817 430.458C615.797 421.288 622.317 413.968 628.557 407.988C638.397 398.878 649.787 391.678 661.117 384.588C667.997 380.218 675.317 376.378 681.267 370.698C687.777 364.528 693.517 357.478 698.107 349.758C674.207 352.178 650.057 352.508 626.157 349.848C612.587 348.328 598.877 346.858 585.777 342.798C582.747 351.188 581.907 360.238 579.157 368.718ZM529.687 767.558C530.787 772.078 532.067 777.638 536.747 779.748C548.637 785.188 560.847 790.608 573.947 792.198C585.637 793.548 596.087 787.098 606.827 783.598C606.667 801.028 608.017 818.478 610.957 835.648C611.627 840.118 614.417 844.008 618.397 846.138C626.567 850.788 634.307 856.478 643.367 859.338C649.767 861.458 656.437 862.628 663.067 863.858C665.707 864.568 668.207 863.128 670.437 861.898C678.757 856.808 685.517 849.118 694.577 845.328C694.957 851.368 695.767 857.388 695.717 863.458C695.937 870.498 695.397 878.108 699.077 884.438C703.027 891.278 708.647 896.918 713.237 903.298C715.487 906.608 719.327 908.198 722.897 909.668C734.787 914.248 747.457 916.068 759.827 918.848C768.467 921.198 776.057 926.208 783.437 931.108C789.987 935.758 796.477 940.648 801.837 946.668C807.077 952.528 809.607 960.588 815.897 965.508C820.247 966.508 824.777 966.648 829.197 967.358C849.247 970.638 869.287 963.258 886.617 953.748C872.077 939.728 860.917 922.768 848.767 906.758C846.857 904.368 845.297 901.368 842.137 900.508C832.077 894.798 821.577 889.288 809.997 887.518C799.047 885.928 787.937 886.348 776.907 886.258C780.987 879.098 785.777 872.368 789.737 865.138C794.237 857.398 794.777 848.148 794.087 839.428C793.567 830.918 789.947 823.048 785.847 815.728C783.307 811.358 781.457 806.378 777.477 803.058C772.537 798.658 766.787 795.048 760.487 792.988C754.747 791.748 748.807 791.668 742.957 791.828C732.107 792.478 722.837 798.738 713.147 802.988C709.357 788.828 704.577 774.618 695.937 762.608C689.657 753.798 680.707 746.188 669.857 744.058C658.667 742.438 647.467 745.608 637.107 749.588C632.177 751.548 626.907 753.628 623.597 757.998C619.397 763.518 616.257 769.738 612.837 775.738C608.337 773.018 604.797 769.018 600.657 765.818C579.197 747.448 556.427 729.048 528.867 720.918C528.437 736.438 526.837 752.168 529.687 767.558Z" fill="#FAF8F8" stroke="#FAF8F8" stroke-width="0.0938"/>
<path d="M1608.06 672.548C1619.71 670.508 1631.35 668.378 1643.03 666.488C1646.67 677.178 1650.37 687.858 1653.87 698.598C1657.2 709.988 1660.44 721.408 1663.74 732.808C1666.05 740.968 1668.96 749.008 1670.03 757.478C1671.91 770.478 1674.35 783.408 1676.1 796.418C1676.57 798.128 1674.35 798.388 1673.28 798.848C1665.75 801.038 1657.63 801.638 1650 799.588C1637.57 796.258 1625.67 790.158 1616.71 780.788C1603.37 766.978 1594.27 749.828 1585.77 732.788C1581.33 723.828 1577.85 714.378 1572.63 705.818C1569.48 700.138 1565.8 694.618 1563.94 688.338C1562.93 686.078 1564.74 684.108 1565.75 682.248C1579.89 679.198 1593.9 675.528 1608.06 672.548Z" fill="#FAF8F8" stroke="#FAF8F8" stroke-width="0.0938"/>
<path d="M1731.41 687.038C1744.56 684.228 1757.68 697.348 1755.12 710.478C1753.83 721.958 1741.26 730.278 1730.18 727.368C1722.32 725.238 1715.37 718.568 1714.46 710.258C1712.5 699.668 1720.87 688.608 1731.41 687.038Z" fill="#FAF8F8" stroke="#FAF8F8" stroke-width="0.0938"/>
<path d="M195.497 759.108C201.727 757.898 209.017 757.898 213.857 762.648C222.697 768.238 224.317 781.098 219.257 789.738C214.267 797.838 203.297 801.478 194.427 798.078C189.067 796.348 184.877 791.938 182.697 786.838C180.337 781.538 181.497 775.528 182.907 770.158C185.557 765.188 190.027 760.798 195.497 759.108Z" fill="#FAF8F8" stroke="#FAF8F8" stroke-width="0.0938"/>
<path d="M1731.38 684.878C1743.87 682.628 1756.96 692.688 1757.45 705.478C1758.98 718.118 1747.84 730.518 1735.05 729.978C1723.19 730.588 1712.45 720.288 1712.06 708.538C1711.29 697.248 1720.11 686.298 1731.38 684.878ZM1731.41 687.038C1720.87 688.608 1712.5 699.668 1714.46 710.258C1715.37 718.568 1722.32 725.238 1730.18 727.368C1741.26 730.278 1753.83 721.958 1755.12 710.478C1757.68 697.348 1744.56 684.228 1731.41 687.038Z" fill="#FAF8F8" stroke="#FAF8F8" stroke-width="0.0938"/>
<path d="M196.337 756.768C209.497 753.128 224.047 763.788 224.377 777.458C225.647 789.958 214.607 801.808 202.077 801.568C190.027 802.238 178.917 791.528 178.937 779.498C178.387 769.008 186.167 759.088 196.337 756.768ZM195.497 759.108C190.027 760.798 185.557 765.188 182.907 770.158C181.497 775.528 180.337 781.538 182.697 786.838C184.877 791.938 189.067 796.348 194.427 798.078C203.297 801.478 214.267 797.838 219.257 789.738C224.317 781.098 222.697 768.238 213.857 762.648C209.017 757.898 201.727 757.898 195.497 759.108Z" fill="#FAF8F8" stroke="#FAF8F8" stroke-width="0.0938"/>
<path d="M286.967 726.898C294.287 727.798 301.507 729.378 308.787 730.568C317.837 732.238 326.987 733.468 335.897 735.868C331.187 748.498 328.577 762.068 321.317 773.608C314.667 786.428 307.277 798.828 299.577 811.048C295.897 816.638 293.107 822.918 288.307 827.708C282.127 833.868 275.977 840.058 269.777 846.198C266.177 849.748 262.827 853.568 258.787 856.638C260.017 849.868 262.867 843.548 264.447 836.878C269.167 820.328 270.617 803.098 275.037 786.488C279.157 766.648 282.957 746.758 286.967 726.898Z" fill="#FAF8F8" stroke="#FAF8F8" stroke-width="0.0938"/>
</g>
<defs>
<clipPath id="clip0">
<rect width="1920.09" height="991.641" fill="white"/>
</clipPath>
</defs>
</svg>
